<!DOCTYPE svg PUBLIC "-//W3C//DTD SVG 1.1//EN" "http://www.w3.org/Graphics/SVG/1.1/DTD/svg11.dtd">
<!-- Uploaded to: SVG Repo, www.svgrepo.com, Transformed by: SVG Repo Mixer Tools -->
<svg fill="#000000" width="256px" height="256px" viewBox="-2.4 -2.4 28.80 28.80" xmlns="http://www.w3.org/2000/svg" id="download-alt" class="icon glyph" stroke="#000000" stroke-width="0.72">
<g id="SVGRepo_bgCarrier" stroke-width="0"/>
<g id="SVGRepo_tracerCarrier" stroke-linecap="round" stroke-linejoin="round" stroke="#CCCCCC" stroke-width="0.048"/>
<g id="SVGRepo_iconCarrier">
<path d="M11.29,16.71h0a1.15,1.15,0,0,0,.33.21.94.94,0,0,0,.76,0,1.15,1.15,0,0,0,.33-.21h0l4-4a1,1,0,0,0-1.42-1.42L13,13.59V3a1,1,0,0,0-2,0V13.59l-2.29-2.3a1,1,0,1,0-1.42,1.42Z"/>
<path d="M19,20H5a1,1,0,0,0,0,2H19a1,1,0,0,0,0-2Z"/>
</g>
</svg>