<!DOCTYPE svg PUBLIC "-//W3C//DTD SVG 1.1//EN" "http://www.w3.org/Graphics/SVG/1.1/DTD/svg11.dtd">
<!-- Uploaded to: SVG Repo, www.svgrepo.com, Transformed by: SVG Repo Mixer Tools -->
<svg fill="#000000" width="256px" height="256px" viewBox="0 0 24 24" xmlns="http://www.w3.org/2000/svg" id="file" class="icon glyph">
<g id="SVGRepo_bgCarrier" stroke-width="0"/>
<g id="SVGRepo_tracerCarrier" stroke-linecap="round" stroke-linejoin="round" stroke="#CCCCCC" stroke-width="0.9600000000000002">
<path d="M19.41,7,15,2.59A2,2,0,0,0,13.59,2H6A2,2,0,0,0,4,4V20a2,2,0,0,0,2,2H18a2,2,0,0,0,2-2V8.41A2,2,0,0,0,19.41,7Z"/>
</g>
<g id="SVGRepo_iconCarrier">
<path d="M19.41,7,15,2.59A2,2,0,0,0,13.59,2H6A2,2,0,0,0,4,4V20a2,2,0,0,0,2,2H18a2,2,0,0,0,2-2V8.41A2,2,0,0,0,19.41,7Z"/>
</g>
</svg>