<!DOCTYPE svg PUBLIC "-//W3C//DTD SVG 1.1//EN" "http://www.w3.org/Graphics/SVG/1.1/DTD/svg11.dtd">
<!-- Uploaded to: SVG Repo, www.svgrepo.com, Transformed by: SVG Repo Mixer Tools -->
<svg fill="#ffffff" width="256px" height="256px" viewBox="0 0 24 24" xmlns="http://www.w3.org/2000/svg">
<g id="SVGRepo_bgCarrier" stroke-width="0"/>
<g id="SVGRepo_tracerCarrier" stroke-linecap="round" stroke-linejoin="round"/>
<g id="SVGRepo_iconCarrier"> <g data-name="Layer 2"> <g data-name="video"> <rect width="24" height="24" opacity="0"/> <path d="M21 7.15a1.7 1.7 0 0 0-1.85.3l-2.15 2V8a3 3 0 0 0-3-3H5a3 3 0 0 0-3 3v8a3 3 0 0 0 3 3h9a3 3 0 0 0 3-3v-1.45l2.16 2a1.74 1.74 0 0 0 1.16.45 1.68 1.68 0 0 0 .69-.15 1.6 1.6 0 0 0 1-1.48V8.63A1.6 1.6 0 0 0 21 7.15z"/> </g> </g> </g>
</svg>