<?xml version="1.0" encoding="utf-8"?>
<svg viewBox="0 0 700 700" xmlns="http://www.w3.org/2000/svg">
  <g transform="matrix(1.25, 0, 0, 1.25, -87.500001, 0.000001)">
    <path d="m350 0c-154.63 0-280 125.36-280 280s125.37 280 280 280 280-125.37 280-280-125.37-280-280-280zm115.58 395.58c-12.109 12.109-31.75 12.109-43.871 0l-71.707-71.707-71.707 71.707c-12.109 12.109-31.75 12.109-43.871 0-12.109-12.109-12.109-31.75 0-43.871l71.707-71.707-71.707-71.707c-12.109-12.109-12.109-31.75 0-43.871 12.109-12.109 31.75-12.109 43.871 0l71.707 71.707 71.707-71.707c12.109-12.109 31.75-12.109 43.871 0 12.109 12.109 12.109 31.75 0 43.871l-71.707 71.707 71.707 71.707c12.109 12.109 12.109 31.75 0 43.871z" style="fill: rgb(255, 255, 255); stroke: rgb(0, 0, 0); paint-order: fill; stroke-width: 0.8px; stroke-linejoin: round; stroke-linecap: round;"/>
  </g>
</svg>