<?xml version="1.0" encoding="utf-8"?>
<svg viewBox="0 0 700 700" xmlns="http://www.w3.org/2000/svg">
  <g transform="matrix(1.315787, 0, 0, 1.543786, -110.52479, -82.346086)">
    <path d="m172.48 97.441-64.961-40.32c-12.879-8.3984-23.52-2.2383-23.52 12.879v84c0 15.68 10.641 21.281 23.52 13.441l64.398-40.32c13.441-8.4023 13.441-21.84 0.5625-29.68zm415.52-27.441h-336c-15.68 0-28 12.32-28 28v28c0 15.68 12.32 28 28 28h336c15.68 0 28-12.32 28-28v-28c0-15.68-12.32-28-28-28zm-480.48 265.44 64.398-40.32c12.879-8.3984 12.32-20.719-1.1211-27.441l-61.598-31.359c-14-6.7188-25.199 0-25.199 15.68v70c0 15.68 10.641 21.281 23.52 13.441zm480.48-97.441h-336c-15.68 0-28 12.32-28 28v28c0 15.68 12.32 28 28 28h336c15.68 0 28-12.32 28-28v-28c0-15.68-12.32-28-28-28zm-415.52 195.44-64.961-40.32c-12.879-8.3984-23.52-2.2383-23.52 12.879v84c0 15.68 10.641 21.281 23.52 12.879l64.398-40.32c13.441-7.8398 13.441-21.277 0.5625-29.117zm415.52-27.441h-336c-15.68 0-28 12.32-28 28v28c0 15.68 12.32 28 28 28h336c15.68 0 28-12.32 28-28v-28c0-15.68-12.32-28-28-28z"/>
  </g>
</svg>