<?xml version="1.0" encoding="UTF-8" standalone="no" ?>
<!DOCTYPE svg PUBLIC "-//W3C//DTD SVG 1.1//EN" "http://www.w3.org/Graphics/SVG/1.1/DTD/svg11.dtd">
<svg xmlns="http://www.w3.org/2000/svg" xmlns:xlink="http://www.w3.org/1999/xlink" version="1.1" width="500" height="500" viewBox="0 0 500 500" xml:space="preserve">
<desc>Created with Fabric.js 3.6.6</desc>
<defs>
</defs>
<g transform="matrix(38.18 0 0 38.18 250.04 250.42)" id="SVGRepo_iconCarrier"  >
<path style="stroke: rgb(0,0,0); stroke-width: 0; stroke-dasharray: none; stroke-linecap: butt; stroke-dashoffset: 0; stroke-linejoin: miter; stroke-miterlimit: 4; fill: rgb(0,0,0); fill-rule: nonzero; opacity: 1;" vector-effect="non-scaling-stroke"  transform=" translate(-11.98, -12)" d="M 6.99811 10.2467 L 7.43298 11.0077 C 7.70983 11.4922 7.84825 11.7344 7.84825 12 C 7.84825 12.2656 7.70983 12.5078 7.43299 12.9923 L 7.43298 12.9923 L 6.99811 13.7533 C 5.75981 15.9203 5.14066 17.0039 5.62348 17.5412 C 6.1063 18.0785 7.24961 17.5783 9.53623 16.5779 L 15.8119 13.8323 C 17.6074 13.0468 18.5051 12.654 18.5051 12 C 18.5051 11.346 17.6074 10.9532 15.8119 10.1677 L 9.53624 7.4221 C 7.24962 6.42171 6.1063 5.92151 5.62348 6.45883 C 5.14066 6.99615 5.75981 8.07966 6.99811 10.2467 Z" stroke-linecap="round" />
</g>
</svg>