<?xml version="1.0" encoding="utf-8"?>
<svg viewBox="0 0 700 700" xmlns="http://www.w3.org/2000/svg">
  <g transform="matrix(1.118905, 0, 0, 1.081124, -91.765977, -52.756509)">
    <path d="M 674.945 422.89 L 155.544 645.993 C 149.009 648.678 141.822 650.024 134.635 650.024 C 120.261 650.024 106.543 643.977 96.089 632.553 C 81.064 615.748 77.796 591.557 87.599 570.725 L 170.575 397.35 C 174.493 389.288 184.296 385.257 192.134 389.957 C 199.973 393.99 203.892 404.072 199.321 412.134 L 116.998 585.511 C 111.119 597.603 118.306 607.016 120.265 609.702 C 122.877 612.388 130.72 619.78 143.135 615.077 L 661.883 392.647 C 673.64 387.269 674.296 376.517 674.296 373.162 C 674.296 369.798 673.645 358.376 661.883 353.674 L 143.135 130.558 C 130.721 125.182 122.225 133.244 120.265 135.936 C 117.654 138.621 111.119 147.358 116.998 160.128 L 195.398 324.767 L 479.609 348.287 C 488.756 348.96 495.291 357.027 494.636 366.436 C 493.983 375.842 486.141 382.564 476.993 381.889 L 183.646 357.027 C 177.769 356.357 172.541 352.995 170.582 347.619 L 87.611 174.242 C 77.812 153.411 81.075 129.219 96.756 112.419 C 112.438 95.62 135.303 90.242 156.212 99.65 L 674.96 322.083 C 695.211 330.819 707.626 350.307 707.626 372.484 C 707.622 395.33 695.211 414.145 674.955 422.884 L 674.945 422.89 Z"/>
  </g>
</svg>