<?xml version="1.0" encoding="utf-8"?>
<svg viewBox="0 0 700 700" xmlns="http://www.w3.org/2000/svg">
  <g transform="matrix(1.55652, 0, 0, 1.316033, -194.706912, -18.3372)">
    <path d="m459.98 380.54c-21.551-0.011719-42.25 8.4336-57.645 23.52l-93.625-78.023c9.1328-13.617 14.012-29.645 14.012-46.039s-4.8789-32.422-14.012-46.039l93.625-78.012c20.457 19.883 49.719 27.82 77.418 21.004 27.703-6.8203 49.934-27.438 58.82-54.547 8.8867-27.109 3.1758-56.883-15.113-78.781-18.285-21.895-46.566-32.82-74.824-28.906-28.262 3.9141-52.508 22.117-64.152 48.16-11.648 26.043-9.0508 56.25 6.8711 79.922l-93.684 78.008c-15.613-15.238-36.617-23.684-58.434-23.508-21.816 0.17969-42.676 8.9727-58.039 24.461-15.363 15.488-23.984 36.422-23.984 58.238s8.6211 42.75 23.984 58.238c15.363 15.488 36.223 24.281 58.039 24.461 21.816 0.17578 42.82-8.2695 58.434-23.508l93.684 78.008c-13.773 20.57-17.602 46.227-10.434 69.922 7.168 23.691 24.578 42.926 47.441 52.41 22.867 9.4844 48.777 8.2188 70.613-3.4453 21.832-11.664 37.289-32.5 42.117-56.777s-1.4805-49.445-17.191-68.574c-15.711-19.129-39.168-30.211-63.922-30.199z"/>
  </g>
</svg>